<svg xmlns="http://www.w3.org/2000/svg" width="1200" height="620" viewBox="0 0 1200 620" role="img" aria-labelledby="t d"><title id="t">Continuum multiphysics simulation workflow</title><desc id="d">A scientific illustration connecting geometry and meshing with CFD, heat transfer, mechanics, electrostatics, coupling and verification.</desc><defs><linearGradient id="bg" x2="1" y2="1"><stop stop-color="#071620"/><stop offset="1" stop-color="#122b34"/></linearGradient><linearGradient id="hot" x1="0" x2="1"><stop stop-color="#31d8ff"/><stop offset=".5" stop-color="#62e6af"/><stop offset="1" stop-color="#ffb24b"/></linearGradient><marker id="m" markerWidth="10" markerHeight="10" refX="9" refY="5" orient="auto"><path d="M0 0L10 5L0 10Z" fill="#78a6bf"/></marker></defs><rect width="1200" height="620" rx="28" fill="url(#bg)"/><g font-family="Inter,Segoe UI,sans-serif"><text x="600" y="58" text-anchor="middle" fill="#f4fbff" font-size="31" font-weight="700">CFD · FEM · Multiphysics</text><text x="600" y="88" text-anchor="middle" fill="#9eb7c2" font-size="16">Geometry, discretization, coupled fields, numerical verification and engineering limits</text><g fill="none" stroke="#789fb0" stroke-width="3" marker-end="url(#m)"><path d="M278 300H395"/><path d="M568 300H685"/><path d="M858 300H970"/></g><g transform="translate(170 300)"><rect x="-98" y="-98" width="196" height="196" rx="24" fill="#0b2731" stroke="#34d7ff" stroke-width="3"/><path d="M-67-65L66-20L-17 68Z" fill="none" stroke="#80eaff" stroke-width="3"/><path d="M-67-65L-17 68M66-20L-17 68M-67-65L2-3L66-20M2-3L-17 68" stroke="#4b91a1" stroke-width="2"/><g fill="#dffbff"><circle cx="-67" cy="-65" r="6"/><circle cx="66" cy="-20" r="6"/><circle cx="-17" cy="68" r="6"/><circle cx="2" cy="-3" r="6"/></g><text y="137" text-anchor="middle" fill="#eafdff" font-size="21" font-weight="700">GEOMETRY &amp; MESH</text><text y="163" text-anchor="middle" fill="#92b2bd" font-size="14">domain · elements · quality</text></g><g transform="translate(480 300)"><rect x="-98" y="-98" width="196" height="196" rx="24" fill="#0e2a34" stroke="#5ae4bd" stroke-width="3"/><path d="M-72-52C-27-76 19-16 72-45M-72-12C-24-36 20 25 72-8M-72 31C-20 5 27 66 72 26" fill="none" stroke="#69e8c2" stroke-width="5" marker-end="url(#m)"/><circle cx="-40" cy="55" r="24" fill="#1ba8c5" opacity=".55"/><circle cx="18" cy="49" r="27" fill="#65dfa9" opacity=".5"/><circle cx="58" cy="61" r="18" fill="#ffba5c" opacity=".55"/><text y="137" text-anchor="middle" fill="#ecfff8" font-size="21" font-weight="700">FLOW &amp; HEAT</text><text y="163" text-anchor="middle" fill="#9ebcaf" font-size="14">mass · momentum · energy</text></g><g transform="translate(770 300)"><rect x="-98" y="-98" width="196" height="196" rx="24" fill="#182934" stroke="#ffb55b" stroke-width="3"/><path d="M-70 50C-45-36-8-73 16-15C41 46 51-18 72-61" fill="none" stroke="url(#hot)" stroke-width="7"/><path d="M-72-60V62H74M-58 31H66M-58 0H66M-58-31H66" stroke="#687985" stroke-width="2"/><path d="M-45-48L-22-19L-4-38L19 13L48-11L68 32" fill="none" stroke="#d8e6e9" stroke-width="3"/><text y="137" text-anchor="middle" fill="#fff7eb" font-size="21" font-weight="700">COUPLED FIELDS</text><text y="163" text-anchor="middle" fill="#c3b49c" font-size="14">stress · electric · thermal</text></g><g transform="translate(1060 300)"><rect x="-98" y="-98" width="196" height="196" rx="24" fill="#172632" stroke="#7fa7ff" stroke-width="3"/><path d="M-66 45L-32 13L-7 26L22-29L60-48" fill="none" stroke="#9db9ff" stroke-width="5"/><path d="M-66-46L-41-23L-13-31L17-4L47-14L67 6" fill="none" stroke="#64e4c0" stroke-width="4"/><g fill="#eaf1ff"><circle cx="-32" cy="13" r="7"/><circle cx="22" cy="-29" r="7"/></g><text y="137" text-anchor="middle" fill="#eef4ff" font-size="21" font-weight="700">VERIFICATION</text><text y="163" text-anchor="middle" fill="#a7b4c9" font-size="14">mesh · conservation · error</text></g><rect x="210" y="518" width="780" height="60" rx="17" fill="#0a2029" stroke="url(#hot)"/><text x="600" y="543" text-anchor="middle" fill="#effbff" font-size="16" font-weight="700">Coupling does not replace conservation, grid independence, stability or boundary-condition evidence.</text><text x="600" y="565" text-anchor="middle" fill="#9cb4bf" font-size="13">Numerical convergence and physical validity are separate acceptance gates.</text></g></svg>